<?xml version="1.0" encoding="UTF-8" standalone="no"?>
<!-- This is a Stata 18.0 generated SVG file (http://www.stata.com) -->

<svg version="1.1" width="7.500in" height="4.500in" viewBox="0 0 5400 3240" xmlns="http://www.w3.org/2000/svg" xmlns:xlink="http://www.w3.org/1999/xlink">
	<desc>Stata Graph - Graph</desc>
	<rect x="0" y="0" width="5400" height="3240" style="fill:#FFFFFF;stroke:none"/>
	<rect x="0.00" y="0.00" width="5400.00" height="3240.00" style="fill:#FFFFFF"/>
	<rect x="3.24" y="3.24" width="5393.52" height="3233.52" style="fill:none;stroke:#FFFFFF;stroke-width:6.48"/>
	<rect x="557.89" y="113.40" width="2815.59" height="2653.26" style="fill:#FFFFFF"/>
	<rect x="561.13" y="116.64" width="2809.11" height="2646.78" style="fill:none;stroke:#FFFFFF;stroke-width:6.48"/>
	<line x1="557.89" y1="2766.66" x2="622.69" y2="2766.66" style="stroke:#F0F0F0;stroke-width:9.72"/>
	<line x1="655.09" y1="2766.66" x2="719.89" y2="2766.66" style="stroke:#F0F0F0;stroke-width:9.72"/>
	<line x1="752.29" y1="2766.66" x2="817.09" y2="2766.66" style="stroke:#F0F0F0;stroke-width:9.72"/>
	<line x1="849.49" y1="2766.66" x2="914.29" y2="2766.66" style="stroke:#F0F0F0;stroke-width:9.72"/>
	<line x1="946.69" y1="2766.66" x2="1011.49" y2="2766.66" style="stroke:#F0F0F0;stroke-width:9.72"/>
	<line x1="1043.89" y1="2766.66" x2="1108.69" y2="2766.66" style="stroke:#F0F0F0;stroke-width:9.72"/>
	<line x1="1141.09" y1="2766.66" x2="1205.89" y2="2766.66" style="stroke:#F0F0F0;stroke-width:9.72"/>
	<line x1="1238.29" y1="2766.66" x2="1303.09" y2="2766.66" style="stroke:#F0F0F0;stroke-width:9.72"/>
	<line x1="1335.49" y1="2766.66" x2="1400.29" y2="2766.66" style="stroke:#F0F0F0;stroke-width:9.72"/>
	<line x1="1432.69" y1="2766.66" x2="1497.49" y2="2766.66" style="stroke:#F0F0F0;stroke-width:9.72"/>
	<line x1="1529.89" y1="2766.66" x2="1594.69" y2="2766.66" style="stroke:#F0F0F0;stroke-width:9.72"/>
	<line x1="1627.09" y1="2766.66" x2="1691.89" y2="2766.66" style="stroke:#F0F0F0;stroke-width:9.72"/>
	<line x1="1724.29" y1="2766.66" x2="1789.09" y2="2766.66" style="stroke:#F0F0F0;stroke-width:9.72"/>
	<line x1="1821.49" y1="2766.66" x2="1886.29" y2="2766.66" style="stroke:#F0F0F0;stroke-width:9.72"/>
	<line x1="1918.69" y1="2766.66" x2="1983.49" y2="2766.66" style="stroke:#F0F0F0;stroke-width:9.72"/>
	<line x1="2015.89" y1="2766.66" x2="2080.69" y2="2766.66" style="stroke:#F0F0F0;stroke-width:9.72"/>
	<line x1="2113.09" y1="2766.66" x2="2177.89" y2="2766.66" style="stroke:#F0F0F0;stroke-width:9.72"/>
	<line x1="2210.29" y1="2766.66" x2="2275.09" y2="2766.66" style="stroke:#F0F0F0;stroke-width:9.72"/>
	<line x1="2307.49" y1="2766.66" x2="2372.29" y2="2766.66" style="stroke:#F0F0F0;stroke-width:9.72"/>
	<line x1="2404.69" y1="2766.66" x2="2469.49" y2="2766.66" style="stroke:#F0F0F0;stroke-width:9.72"/>
	<line x1="2501.89" y1="2766.66" x2="2566.69" y2="2766.66" style="stroke:#F0F0F0;stroke-width:9.72"/>
	<line x1="2599.09" y1="2766.66" x2="2663.89" y2="2766.66" style="stroke:#F0F0F0;stroke-width:9.72"/>
	<line x1="2696.29" y1="2766.66" x2="2761.09" y2="2766.66" style="stroke:#F0F0F0;stroke-width:9.72"/>
	<line x1="2793.49" y1="2766.66" x2="2858.29" y2="2766.66" style="stroke:#F0F0F0;stroke-width:9.72"/>
	<line x1="2890.69" y1="2766.66" x2="2955.49" y2="2766.66" style="stroke:#F0F0F0;stroke-width:9.72"/>
	<line x1="2987.89" y1="2766.66" x2="3052.69" y2="2766.66" style="stroke:#F0F0F0;stroke-width:9.72"/>
	<line x1="3085.09" y1="2766.66" x2="3149.89" y2="2766.66" style="stroke:#F0F0F0;stroke-width:9.72"/>
	<line x1="3182.29" y1="2766.66" x2="3247.09" y2="2766.66" style="stroke:#F0F0F0;stroke-width:9.72"/>
	<line x1="3279.49" y1="2766.66" x2="3344.29" y2="2766.66" style="stroke:#F0F0F0;stroke-width:9.72"/>
	<line x1="557.89" y1="2121.19" x2="622.69" y2="2121.19" style="stroke:#F0F0F0;stroke-width:9.72"/>
	<line x1="655.09" y1="2121.19" x2="719.89" y2="2121.19" style="stroke:#F0F0F0;stroke-width:9.72"/>
	<line x1="752.29" y1="2121.19" x2="817.09" y2="2121.19" style="stroke:#F0F0F0;stroke-width:9.72"/>
	<line x1="849.49" y1="2121.19" x2="914.29" y2="2121.19" style="stroke:#F0F0F0;stroke-width:9.72"/>
	<line x1="946.69" y1="2121.19" x2="1011.49" y2="2121.19" style="stroke:#F0F0F0;stroke-width:9.72"/>
	<line x1="1043.89" y1="2121.19" x2="1108.69" y2="2121.19" style="stroke:#F0F0F0;stroke-width:9.72"/>
	<line x1="1141.09" y1="2121.19" x2="1205.89" y2="2121.19" style="stroke:#F0F0F0;stroke-width:9.72"/>
	<line x1="1238.29" y1="2121.19" x2="1303.09" y2="2121.19" style="stroke:#F0F0F0;stroke-width:9.72"/>
	<line x1="1335.49" y1="2121.19" x2="1400.29" y2="2121.19" style="stroke:#F0F0F0;stroke-width:9.72"/>
	<line x1="1432.69" y1="2121.19" x2="1497.49" y2="2121.19" style="stroke:#F0F0F0;stroke-width:9.72"/>
	<line x1="1529.89" y1="2121.19" x2="1594.69" y2="2121.19" style="stroke:#F0F0F0;stroke-width:9.72"/>
	<line x1="1627.09" y1="2121.19" x2="1691.89" y2="2121.19" style="stroke:#F0F0F0;stroke-width:9.72"/>
	<line x1="1724.29" y1="2121.19" x2="1789.09" y2="2121.19" style="stroke:#F0F0F0;stroke-width:9.72"/>
	<line x1="1821.49" y1="2121.19" x2="1886.29" y2="2121.19" style="stroke:#F0F0F0;stroke-width:9.72"/>
	<line x1="1918.69" y1="2121.19" x2="1983.49" y2="2121.19" style="stroke:#F0F0F0;stroke-width:9.72"/>
	<line x1="2015.89" y1="2121.19" x2="2080.69" y2="2121.19" style="stroke:#F0F0F0;stroke-width:9.72"/>
	<line x1="2113.09" y1="2121.19" x2="2177.89" y2="2121.19" style="stroke:#F0F0F0;stroke-width:9.72"/>
	<line x1="2210.29" y1="2121.19" x2="2275.09" y2="2121.19" style="stroke:#F0F0F0;stroke-width:9.72"/>
	<line x1="2307.49" y1="2121.19" x2="2372.29" y2="2121.19" style="stroke:#F0F0F0;stroke-width:9.72"/>
	<line x1="2404.69" y1="2121.19" x2="2469.49" y2="2121.19" style="stroke:#F0F0F0;stroke-width:9.72"/>
	<line x1="2501.89" y1="2121.19" x2="2566.69" y2="2121.19" style="stroke:#F0F0F0;stroke-width:9.72"/>
	<line x1="2599.09" y1="2121.19" x2="2663.89" y2="2121.19" style="stroke:#F0F0F0;stroke-width:9.72"/>
	<line x1="2696.29" y1="2121.19" x2="2761.09" y2="2121.19" style="stroke:#F0F0F0;stroke-width:9.72"/>
	<line x1="2793.49" y1="2121.19" x2="2858.29" y2="2121.19" style="stroke:#F0F0F0;stroke-width:9.72"/>
	<line x1="2890.69" y1="2121.19" x2="2955.49" y2="2121.19" style="stroke:#F0F0F0;stroke-width:9.72"/>
	<line x1="2987.89" y1="2121.19" x2="3052.69" y2="2121.19" style="stroke:#F0F0F0;stroke-width:9.72"/>
	<line x1="3085.09" y1="2121.19" x2="3149.89" y2="2121.19" style="stroke:#F0F0F0;stroke-width:9.72"/>
	<line x1="3182.29" y1="2121.19" x2="3247.09" y2="2121.19" style="stroke:#F0F0F0;stroke-width:9.72"/>
	<line x1="3279.49" y1="2121.19" x2="3344.29" y2="2121.19" style="stroke:#F0F0F0;stroke-width:9.72"/>
	<line x1="557.89" y1="1475.72" x2="622.69" y2="1475.72" style="stroke:#F0F0F0;stroke-width:9.72"/>
	<line x1="655.09" y1="1475.72" x2="719.89" y2="1475.72" style="stroke:#F0F0F0;stroke-width:9.72"/>
	<line x1="752.29" y1="1475.72" x2="817.09" y2="1475.72" style="stroke:#F0F0F0;stroke-width:9.72"/>
	<line x1="849.49" y1="1475.72" x2="914.29" y2="1475.72" style="stroke:#F0F0F0;stroke-width:9.72"/>
	<line x1="946.69" y1="1475.72" x2="1011.49" y2="1475.72" style="stroke:#F0F0F0;stroke-width:9.72"/>
	<line x1="1043.89" y1="1475.72" x2="1108.69" y2="1475.72" style="stroke:#F0F0F0;stroke-width:9.72"/>
	<line x1="1141.09" y1="1475.72" x2="1205.89" y2="1475.72" style="stroke:#F0F0F0;stroke-width:9.72"/>
	<line x1="1238.29" y1="1475.72" x2="1303.09" y2="1475.72" style="stroke:#F0F0F0;stroke-width:9.72"/>
	<line x1="1335.49" y1="1475.72" x2="1400.29" y2="1475.72" style="stroke:#F0F0F0;stroke-width:9.72"/>
	<line x1="1432.69" y1="1475.72" x2="1497.49" y2="1475.72" style="stroke:#F0F0F0;stroke-width:9.72"/>
	<line x1="1529.89" y1="1475.72" x2="1594.69" y2="1475.72" style="stroke:#F0F0F0;stroke-width:9.72"/>
	<line x1="1627.09" y1="1475.72" x2="1691.89" y2="1475.72" style="stroke:#F0F0F0;stroke-width:9.72"/>
	<line x1="1724.29" y1="1475.72" x2="1789.09" y2="1475.72" style="stroke:#F0F0F0;stroke-width:9.72"/>
	<line x1="1821.49" y1="1475.72" x2="1886.29" y2="1475.72" style="stroke:#F0F0F0;stroke-width:9.72"/>
	<line x1="1918.69" y1="1475.72" x2="1983.49" y2="1475.72" style="stroke:#F0F0F0;stroke-width:9.72"/>
	<line x1="2015.89" y1="1475.72" x2="2080.69" y2="1475.72" style="stroke:#F0F0F0;stroke-width:9.72"/>
	<line x1="2113.09" y1="1475.72" x2="2177.89" y2="1475.72" style="stroke:#F0F0F0;stroke-width:9.72"/>
	<line x1="2210.29" y1="1475.72" x2="2275.09" y2="1475.72" style="stroke:#F0F0F0;stroke-width:9.72"/>
	<line x1="2307.49" y1="1475.72" x2="2372.29" y2="1475.72" style="stroke:#F0F0F0;stroke-width:9.72"/>
	<line x1="2404.69" y1="1475.72" x2="2469.49" y2="1475.72" style="stroke:#F0F0F0;stroke-width:9.72"/>
	<line x1="2501.89" y1="1475.72" x2="2566.69" y2="1475.72" style="stroke:#F0F0F0;stroke-width:9.72"/>
	<line x1="2599.09" y1="1475.72" x2="2663.89" y2="1475.72" style="stroke:#F0F0F0;stroke-width:9.72"/>
	<line x1="2696.29" y1="1475.72" x2="2761.09" y2="1475.72" style="stroke:#F0F0F0;stroke-width:9.72"/>
	<line x1="2793.49" y1="1475.72" x2="2858.29" y2="1475.72" style="stroke:#F0F0F0;stroke-width:9.72"/>
	<line x1="2890.69" y1="1475.72" x2="2955.49" y2="1475.72" style="stroke:#F0F0F0;stroke-width:9.72"/>
	<line x1="2987.89" y1="1475.72" x2="3052.69" y2="1475.72" style="stroke:#F0F0F0;stroke-width:9.72"/>
	<line x1="3085.09" y1="1475.72" x2="3149.89" y2="1475.72" style="stroke:#F0F0F0;stroke-width:9.72"/>
	<line x1="3182.29" y1="1475.72" x2="3247.09" y2="1475.72" style="stroke:#F0F0F0;stroke-width:9.72"/>
	<line x1="3279.49" y1="1475.72" x2="3344.29" y2="1475.72" style="stroke:#F0F0F0;stroke-width:9.72"/>
	<line x1="557.89" y1="830.08" x2="622.69" y2="830.08" style="stroke:#F0F0F0;stroke-width:9.72"/>
	<line x1="655.09" y1="830.08" x2="719.89" y2="830.08" style="stroke:#F0F0F0;stroke-width:9.72"/>
	<line x1="752.29" y1="830.08" x2="817.09" y2="830.08" style="stroke:#F0F0F0;stroke-width:9.72"/>
	<line x1="849.49" y1="830.08" x2="914.29" y2="830.08" style="stroke:#F0F0F0;stroke-width:9.72"/>
	<line x1="946.69" y1="830.08" x2="1011.49" y2="830.08" style="stroke:#F0F0F0;stroke-width:9.72"/>
	<line x1="1043.89" y1="830.08" x2="1108.69" y2="830.08" style="stroke:#F0F0F0;stroke-width:9.72"/>
	<line x1="1141.09" y1="830.08" x2="1205.89" y2="830.08" style="stroke:#F0F0F0;stroke-width:9.72"/>
	<line x1="1238.29" y1="830.08" x2="1303.09" y2="830.08" style="stroke:#F0F0F0;stroke-width:9.72"/>
	<line x1="1335.49" y1="830.08" x2="1400.29" y2="830.08" style="stroke:#F0F0F0;stroke-width:9.72"/>
	<line x1="1432.69" y1="830.08" x2="1497.49" y2="830.08" style="stroke:#F0F0F0;stroke-width:9.72"/>
	<line x1="1529.89" y1="830.08" x2="1594.69" y2="830.08" style="stroke:#F0F0F0;stroke-width:9.72"/>
	<line x1="1627.09" y1="830.08" x2="1691.89" y2="830.08" style="stroke:#F0F0F0;stroke-width:9.72"/>
	<line x1="1724.29" y1="830.08" x2="1789.09" y2="830.08" style="stroke:#F0F0F0;stroke-width:9.72"/>
	<line x1="1821.49" y1="830.08" x2="1886.29" y2="830.08" style="stroke:#F0F0F0;stroke-width:9.72"/>
	<line x1="1918.69" y1="830.08" x2="1983.49" y2="830.08" style="stroke:#F0F0F0;stroke-width:9.72"/>
	<line x1="2015.89" y1="830.08" x2="2080.69" y2="830.08" style="stroke:#F0F0F0;stroke-width:9.72"/>
	<line x1="2113.09" y1="830.08" x2="2177.89" y2="830.08" style="stroke:#F0F0F0;stroke-width:9.72"/>
	<line x1="2210.29" y1="830.08" x2="2275.09" y2="830.08" style="stroke:#F0F0F0;stroke-width:9.72"/>
	<line x1="2307.49" y1="830.08" x2="2372.29" y2="830.08" style="stroke:#F0F0F0;stroke-width:9.72"/>
	<line x1="2404.69" y1="830.08" x2="2469.49" y2="830.08" style="stroke:#F0F0F0;stroke-width:9.72"/>
	<line x1="2501.89" y1="830.08" x2="2566.69" y2="830.08" style="stroke:#F0F0F0;stroke-width:9.72"/>
	<line x1="2599.09" y1="830.08" x2="2663.89" y2="830.08" style="stroke:#F0F0F0;stroke-width:9.72"/>
	<line x1="2696.29" y1="830.08" x2="2761.09" y2="830.08" style="stroke:#F0F0F0;stroke-width:9.72"/>
	<line x1="2793.49" y1="830.08" x2="2858.29" y2="830.08" style="stroke:#F0F0F0;stroke-width:9.72"/>
	<line x1="2890.69" y1="830.08" x2="2955.49" y2="830.08" style="stroke:#F0F0F0;stroke-width:9.72"/>
	<line x1="2987.89" y1="830.08" x2="3052.69" y2="830.08" style="stroke:#F0F0F0;stroke-width:9.72"/>
	<line x1="3085.09" y1="830.08" x2="3149.89" y2="830.08" style="stroke:#F0F0F0;stroke-width:9.72"/>
	<line x1="3182.29" y1="830.08" x2="3247.09" y2="830.08" style="stroke:#F0F0F0;stroke-width:9.72"/>
	<line x1="3279.49" y1="830.08" x2="3344.29" y2="830.08" style="stroke:#F0F0F0;stroke-width:9.72"/>
	<line x1="557.89" y1="184.61" x2="622.69" y2="184.61" style="stroke:#F0F0F0;stroke-width:9.72"/>
	<line x1="655.09" y1="184.61" x2="719.89" y2="184.61" style="stroke:#F0F0F0;stroke-width:9.72"/>
	<line x1="752.29" y1="184.61" x2="817.09" y2="184.61" style="stroke:#F0F0F0;stroke-width:9.72"/>
	<line x1="849.49" y1="184.61" x2="914.29" y2="184.61" style="stroke:#F0F0F0;stroke-width:9.72"/>
	<line x1="946.69" y1="184.61" x2="1011.49" y2="184.61" style="stroke:#F0F0F0;stroke-width:9.72"/>
	<line x1="1043.89" y1="184.61" x2="1108.69" y2="184.61" style="stroke:#F0F0F0;stroke-width:9.72"/>
	<line x1="1141.09" y1="184.61" x2="1205.89" y2="184.61" style="stroke:#F0F0F0;stroke-width:9.72"/>
	<line x1="1238.29" y1="184.61" x2="1303.09" y2="184.61" style="stroke:#F0F0F0;stroke-width:9.72"/>
	<line x1="1335.49" y1="184.61" x2="1400.29" y2="184.61" style="stroke:#F0F0F0;stroke-width:9.72"/>
	<line x1="1432.69" y1="184.61" x2="1497.49" y2="184.61" style="stroke:#F0F0F0;stroke-width:9.72"/>
	<line x1="1529.89" y1="184.61" x2="1594.69" y2="184.61" style="stroke:#F0F0F0;stroke-width:9.72"/>
	<line x1="1627.09" y1="184.61" x2="1691.89" y2="184.61" style="stroke:#F0F0F0;stroke-width:9.72"/>
	<line x1="1724.29" y1="184.61" x2="1789.09" y2="184.61" style="stroke:#F0F0F0;stroke-width:9.72"/>
	<line x1="1821.49" y1="184.61" x2="1886.29" y2="184.61" style="stroke:#F0F0F0;stroke-width:9.72"/>
	<line x1="1918.69" y1="184.61" x2="1983.49" y2="184.61" style="stroke:#F0F0F0;stroke-width:9.72"/>
	<line x1="2015.89" y1="184.61" x2="2080.69" y2="184.61" style="stroke:#F0F0F0;stroke-width:9.72"/>
	<line x1="2113.09" y1="184.61" x2="2177.89" y2="184.61" style="stroke:#F0F0F0;stroke-width:9.72"/>
	<line x1="2210.29" y1="184.61" x2="2275.09" y2="184.61" style="stroke:#F0F0F0;stroke-width:9.72"/>
	<line x1="2307.49" y1="184.61" x2="2372.29" y2="184.61" style="stroke:#F0F0F0;stroke-width:9.72"/>
	<line x1="2404.69" y1="184.61" x2="2469.49" y2="184.61" style="stroke:#F0F0F0;stroke-width:9.72"/>
	<line x1="2501.89" y1="184.61" x2="2566.69" y2="184.61" style="stroke:#F0F0F0;stroke-width:9.72"/>
	<line x1="2599.09" y1="184.61" x2="2663.89" y2="184.61" style="stroke:#F0F0F0;stroke-width:9.72"/>
	<line x1="2696.29" y1="184.61" x2="2761.09" y2="184.61" style="stroke:#F0F0F0;stroke-width:9.72"/>
	<line x1="2793.49" y1="184.61" x2="2858.29" y2="184.61" style="stroke:#F0F0F0;stroke-width:9.72"/>
	<line x1="2890.69" y1="184.61" x2="2955.49" y2="184.61" style="stroke:#F0F0F0;stroke-width:9.72"/>
	<line x1="2987.89" y1="184.61" x2="3052.69" y2="184.61" style="stroke:#F0F0F0;stroke-width:9.72"/>
	<line x1="3085.09" y1="184.61" x2="3149.89" y2="184.61" style="stroke:#F0F0F0;stroke-width:9.72"/>
	<line x1="3182.29" y1="184.61" x2="3247.09" y2="184.61" style="stroke:#F0F0F0;stroke-width:9.72"/>
	<line x1="3279.49" y1="184.61" x2="3344.29" y2="184.61" style="stroke:#F0F0F0;stroke-width:9.72"/>
	<line x1="764.27" y1="2766.66" x2="764.27" y2="2701.86" style="stroke:#F0F0F0;stroke-width:9.72"/>
	<line x1="764.27" y1="2669.46" x2="764.27" y2="2604.66" style="stroke:#F0F0F0;stroke-width:9.72"/>
	<line x1="764.27" y1="2572.26" x2="764.27" y2="2507.46" style="stroke:#F0F0F0;stroke-width:9.72"/>
	<line x1="764.27" y1="2475.06" x2="764.27" y2="2410.26" style="stroke:#F0F0F0;stroke-width:9.72"/>
	<line x1="764.27" y1="2377.86" x2="764.27" y2="2313.06" style="stroke:#F0F0F0;stroke-width:9.72"/>
	<line x1="764.27" y1="2280.66" x2="764.27" y2="2215.86" style="stroke:#F0F0F0;stroke-width:9.72"/>
	<line x1="764.27" y1="2183.46" x2="764.27" y2="2118.66" style="stroke:#F0F0F0;stroke-width:9.72"/>
	<line x1="764.27" y1="2086.26" x2="764.27" y2="2021.46" style="stroke:#F0F0F0;stroke-width:9.72"/>
	<line x1="764.27" y1="1989.06" x2="764.27" y2="1924.26" style="stroke:#F0F0F0;stroke-width:9.72"/>
	<line x1="764.27" y1="1891.86" x2="764.27" y2="1827.06" style="stroke:#F0F0F0;stroke-width:9.72"/>
	<line x1="764.27" y1="1794.66" x2="764.27" y2="1729.86" style="stroke:#F0F0F0;stroke-width:9.72"/>
	<line x1="764.27" y1="1697.46" x2="764.27" y2="1632.66" style="stroke:#F0F0F0;stroke-width:9.72"/>
	<line x1="764.27" y1="1600.26" x2="764.27" y2="1535.46" style="stroke:#F0F0F0;stroke-width:9.72"/>
	<line x1="764.27" y1="1503.06" x2="764.27" y2="1438.26" style="stroke:#F0F0F0;stroke-width:9.72"/>
	<line x1="764.27" y1="1405.86" x2="764.27" y2="1341.06" style="stroke:#F0F0F0;stroke-width:9.72"/>
	<line x1="764.27" y1="1308.66" x2="764.27" y2="1243.86" style="stroke:#F0F0F0;stroke-width:9.72"/>
	<line x1="764.27" y1="1211.46" x2="764.27" y2="1146.66" style="stroke:#F0F0F0;stroke-width:9.72"/>
	<line x1="764.27" y1="1114.26" x2="764.27" y2="1049.46" style="stroke:#F0F0F0;stroke-width:9.72"/>
	<line x1="764.27" y1="1017.06" x2="764.27" y2="952.26" style="stroke:#F0F0F0;stroke-width:9.72"/>
	<line x1="764.27" y1="919.86" x2="764.27" y2="855.06" style="stroke:#F0F0F0;stroke-width:9.72"/>
	<line x1="764.27" y1="822.66" x2="764.27" y2="757.86" style="stroke:#F0F0F0;stroke-width:9.72"/>
	<line x1="764.27" y1="725.46" x2="764.27" y2="660.66" style="stroke:#F0F0F0;stroke-width:9.72"/>
	<line x1="764.27" y1="628.26" x2="764.27" y2="563.46" style="stroke:#F0F0F0;stroke-width:9.72"/>
	<line x1="764.27" y1="531.06" x2="764.27" y2="466.26" style="stroke:#F0F0F0;stroke-width:9.72"/>
	<line x1="764.27" y1="433.86" x2="764.27" y2="369.06" style="stroke:#F0F0F0;stroke-width:9.72"/>
	<line x1="764.27" y1="336.66" x2="764.27" y2="271.86" style="stroke:#F0F0F0;stroke-width:9.72"/>
	<line x1="764.27" y1="239.46" x2="764.27" y2="174.66" style="stroke:#F0F0F0;stroke-width:9.72"/>
	<line x1="764.27" y1="142.26" x2="764.27" y2="113.40" style="stroke:#F0F0F0;stroke-width:9.72"/>
	<line x1="1610.21" y1="2766.66" x2="1610.21" y2="2701.86" style="stroke:#F0F0F0;stroke-width:9.72"/>
	<line x1="1610.21" y1="2669.46" x2="1610.21" y2="2604.66" style="stroke:#F0F0F0;stroke-width:9.72"/>
	<line x1="1610.21" y1="2572.26" x2="1610.21" y2="2507.46" style="stroke:#F0F0F0;stroke-width:9.72"/>
	<line x1="1610.21" y1="2475.06" x2="1610.21" y2="2410.26" style="stroke:#F0F0F0;stroke-width:9.72"/>
	<line x1="1610.21" y1="2377.86" x2="1610.21" y2="2313.06" style="stroke:#F0F0F0;stroke-width:9.72"/>
	<line x1="1610.21" y1="2280.66" x2="1610.21" y2="2215.86" style="stroke:#F0F0F0;stroke-width:9.72"/>
	<line x1="1610.21" y1="2183.46" x2="1610.21" y2="2118.66" style="stroke:#F0F0F0;stroke-width:9.72"/>
	<line x1="1610.21" y1="2086.26" x2="1610.21" y2="2021.46" style="stroke:#F0F0F0;stroke-width:9.72"/>
	<line x1="1610.21" y1="1989.06" x2="1610.21" y2="1924.26" style="stroke:#F0F0F0;stroke-width:9.72"/>
	<line x1="1610.21" y1="1891.86" x2="1610.21" y2="1827.06" style="stroke:#F0F0F0;stroke-width:9.72"/>
	<line x1="1610.21" y1="1794.66" x2="1610.21" y2="1729.86" style="stroke:#F0F0F0;stroke-width:9.72"/>
	<line x1="1610.21" y1="1697.46" x2="1610.21" y2="1632.66" style="stroke:#F0F0F0;stroke-width:9.72"/>
	<line x1="1610.21" y1="1600.26" x2="1610.21" y2="1535.46" style="stroke:#F0F0F0;stroke-width:9.72"/>
	<line x1="1610.21" y1="1503.06" x2="1610.21" y2="1438.26" style="stroke:#F0F0F0;stroke-width:9.72"/>
	<line x1="1610.21" y1="1405.86" x2="1610.21" y2="1341.06" style="stroke:#F0F0F0;stroke-width:9.72"/>
	<line x1="1610.21" y1="1308.66" x2="1610.21" y2="1243.86" style="stroke:#F0F0F0;stroke-width:9.72"/>
	<line x1="1610.21" y1="1211.46" x2="1610.21" y2="1146.66" style="stroke:#F0F0F0;stroke-width:9.72"/>
	<line x1="1610.21" y1="1114.26" x2="1610.21" y2="1049.46" style="stroke:#F0F0F0;stroke-width:9.72"/>
	<line x1="1610.21" y1="1017.06" x2="1610.21" y2="952.26" style="stroke:#F0F0F0;stroke-width:9.72"/>
	<line x1="1610.21" y1="919.86" x2="1610.21" y2="855.06" style="stroke:#F0F0F0;stroke-width:9.72"/>
	<line x1="1610.21" y1="822.66" x2="1610.21" y2="757.86" style="stroke:#F0F0F0;stroke-width:9.72"/>
	<line x1="1610.21" y1="725.46" x2="1610.21" y2="660.66" style="stroke:#F0F0F0;stroke-width:9.72"/>
	<line x1="1610.21" y1="628.26" x2="1610.21" y2="563.46" style="stroke:#F0F0F0;stroke-width:9.72"/>
	<line x1="1610.21" y1="531.06" x2="1610.21" y2="466.26" style="stroke:#F0F0F0;stroke-width:9.72"/>
	<line x1="1610.21" y1="433.86" x2="1610.21" y2="369.06" style="stroke:#F0F0F0;stroke-width:9.72"/>
	<line x1="1610.21" y1="336.66" x2="1610.21" y2="271.86" style="stroke:#F0F0F0;stroke-width:9.72"/>
	<line x1="1610.21" y1="239.46" x2="1610.21" y2="174.66" style="stroke:#F0F0F0;stroke-width:9.72"/>
	<line x1="1610.21" y1="142.26" x2="1610.21" y2="113.40" style="stroke:#F0F0F0;stroke-width:9.72"/>
	<line x1="2456.16" y1="2766.66" x2="2456.16" y2="2701.86" style="stroke:#F0F0F0;stroke-width:9.72"/>
	<line x1="2456.16" y1="2669.46" x2="2456.16" y2="2604.66" style="stroke:#F0F0F0;stroke-width:9.72"/>
	<line x1="2456.16" y1="2572.26" x2="2456.16" y2="2507.46" style="stroke:#F0F0F0;stroke-width:9.72"/>
	<line x1="2456.16" y1="2475.06" x2="2456.16" y2="2410.26" style="stroke:#F0F0F0;stroke-width:9.72"/>
	<line x1="2456.16" y1="2377.86" x2="2456.16" y2="2313.06" style="stroke:#F0F0F0;stroke-width:9.72"/>
	<line x1="2456.16" y1="2280.66" x2="2456.16" y2="2215.86" style="stroke:#F0F0F0;stroke-width:9.72"/>
	<line x1="2456.16" y1="2183.46" x2="2456.16" y2="2118.66" style="stroke:#F0F0F0;stroke-width:9.72"/>
	<line x1="2456.16" y1="2086.26" x2="2456.16" y2="2021.46" style="stroke:#F0F0F0;stroke-width:9.72"/>
	<line x1="2456.16" y1="1989.06" x2="2456.16" y2="1924.26" style="stroke:#F0F0F0;stroke-width:9.72"/>
	<line x1="2456.16" y1="1891.86" x2="2456.16" y2="1827.06" style="stroke:#F0F0F0;stroke-width:9.72"/>
	<line x1="2456.16" y1="1794.66" x2="2456.16" y2="1729.86" style="stroke:#F0F0F0;stroke-width:9.72"/>
	<line x1="2456.16" y1="1697.46" x2="2456.16" y2="1632.66" style="stroke:#F0F0F0;stroke-width:9.72"/>
	<line x1="2456.16" y1="1600.26" x2="2456.16" y2="1535.46" style="stroke:#F0F0F0;stroke-width:9.72"/>
	<line x1="2456.16" y1="1503.06" x2="2456.16" y2="1438.26" style="stroke:#F0F0F0;stroke-width:9.72"/>
	<line x1="2456.16" y1="1405.86" x2="2456.16" y2="1341.06" style="stroke:#F0F0F0;stroke-width:9.72"/>
	<line x1="2456.16" y1="1308.66" x2="2456.16" y2="1243.86" style="stroke:#F0F0F0;stroke-width:9.72"/>
	<line x1="2456.16" y1="1211.46" x2="2456.16" y2="1146.66" style="stroke:#F0F0F0;stroke-width:9.72"/>
	<line x1="2456.16" y1="1114.26" x2="2456.16" y2="1049.46" style="stroke:#F0F0F0;stroke-width:9.72"/>
	<line x1="2456.16" y1="1017.06" x2="2456.16" y2="952.26" style="stroke:#F0F0F0;stroke-width:9.72"/>
	<line x1="2456.16" y1="919.86" x2="2456.16" y2="855.06" style="stroke:#F0F0F0;stroke-width:9.72"/>
	<line x1="2456.16" y1="822.66" x2="2456.16" y2="757.86" style="stroke:#F0F0F0;stroke-width:9.72"/>
	<line x1="2456.16" y1="725.46" x2="2456.16" y2="660.66" style="stroke:#F0F0F0;stroke-width:9.72"/>
	<line x1="2456.16" y1="628.26" x2="2456.16" y2="563.46" style="stroke:#F0F0F0;stroke-width:9.72"/>
	<line x1="2456.16" y1="531.06" x2="2456.16" y2="466.26" style="stroke:#F0F0F0;stroke-width:9.72"/>
	<line x1="2456.16" y1="433.86" x2="2456.16" y2="369.06" style="stroke:#F0F0F0;stroke-width:9.72"/>
	<line x1="2456.16" y1="336.66" x2="2456.16" y2="271.86" style="stroke:#F0F0F0;stroke-width:9.72"/>
	<line x1="2456.16" y1="239.46" x2="2456.16" y2="174.66" style="stroke:#F0F0F0;stroke-width:9.72"/>
	<line x1="2456.16" y1="142.26" x2="2456.16" y2="113.40" style="stroke:#F0F0F0;stroke-width:9.72"/>
	<line x1="3302.10" y1="2766.66" x2="3302.10" y2="2701.86" style="stroke:#F0F0F0;stroke-width:9.72"/>
	<line x1="3302.10" y1="2669.46" x2="3302.10" y2="2604.66" style="stroke:#F0F0F0;stroke-width:9.72"/>
	<line x1="3302.10" y1="2572.26" x2="3302.10" y2="2507.46" style="stroke:#F0F0F0;stroke-width:9.72"/>
	<line x1="3302.10" y1="2475.06" x2="3302.10" y2="2410.26" style="stroke:#F0F0F0;stroke-width:9.72"/>
	<line x1="3302.10" y1="2377.86" x2="3302.10" y2="2313.06" style="stroke:#F0F0F0;stroke-width:9.72"/>
	<line x1="3302.10" y1="2280.66" x2="3302.10" y2="2215.86" style="stroke:#F0F0F0;stroke-width:9.72"/>
	<line x1="3302.10" y1="2183.46" x2="3302.10" y2="2118.66" style="stroke:#F0F0F0;stroke-width:9.72"/>
	<line x1="3302.10" y1="2086.26" x2="3302.10" y2="2021.46" style="stroke:#F0F0F0;stroke-width:9.72"/>
	<line x1="3302.10" y1="1989.06" x2="3302.10" y2="1924.26" style="stroke:#F0F0F0;stroke-width:9.72"/>
	<line x1="3302.10" y1="1891.86" x2="3302.10" y2="1827.06" style="stroke:#F0F0F0;stroke-width:9.72"/>
	<line x1="3302.10" y1="1794.66" x2="3302.10" y2="1729.86" style="stroke:#F0F0F0;stroke-width:9.72"/>
	<line x1="3302.10" y1="1697.46" x2="3302.10" y2="1632.66" style="stroke:#F0F0F0;stroke-width:9.72"/>
	<line x1="3302.10" y1="1600.26" x2="3302.10" y2="1535.46" style="stroke:#F0F0F0;stroke-width:9.72"/>
	<line x1="3302.10" y1="1503.06" x2="3302.10" y2="1438.26" style="stroke:#F0F0F0;stroke-width:9.72"/>
	<line x1="3302.10" y1="1405.86" x2="3302.10" y2="1341.06" style="stroke:#F0F0F0;stroke-width:9.72"/>
	<line x1="3302.10" y1="1308.66" x2="3302.10" y2="1243.86" style="stroke:#F0F0F0;stroke-width:9.72"/>
	<line x1="3302.10" y1="1211.46" x2="3302.10" y2="1146.66" style="stroke:#F0F0F0;stroke-width:9.72"/>
	<line x1="3302.10" y1="1114.26" x2="3302.10" y2="1049.46" style="stroke:#F0F0F0;stroke-width:9.72"/>
	<line x1="3302.10" y1="1017.06" x2="3302.10" y2="952.26" style="stroke:#F0F0F0;stroke-width:9.72"/>
	<line x1="3302.10" y1="919.86" x2="3302.10" y2="855.06" style="stroke:#F0F0F0;stroke-width:9.72"/>
	<line x1="3302.10" y1="822.66" x2="3302.10" y2="757.86" style="stroke:#F0F0F0;stroke-width:9.72"/>
	<line x1="3302.10" y1="725.46" x2="3302.10" y2="660.66" style="stroke:#F0F0F0;stroke-width:9.72"/>
	<line x1="3302.10" y1="628.26" x2="3302.10" y2="563.46" style="stroke:#F0F0F0;stroke-width:9.72"/>
	<line x1="3302.10" y1="531.06" x2="3302.10" y2="466.26" style="stroke:#F0F0F0;stroke-width:9.72"/>
	<line x1="3302.10" y1="433.86" x2="3302.10" y2="369.06" style="stroke:#F0F0F0;stroke-width:9.72"/>
	<line x1="3302.10" y1="336.66" x2="3302.10" y2="271.86" style="stroke:#F0F0F0;stroke-width:9.72"/>
	<line x1="3302.10" y1="239.46" x2="3302.10" y2="174.66" style="stroke:#F0F0F0;stroke-width:9.72"/>
	<line x1="3302.10" y1="142.26" x2="3302.10" y2="113.40" style="stroke:#F0F0F0;stroke-width:9.72"/>
	<rect x="1121.01" y="2131.65" width="429.98" height="635.01" style="fill:#FF8C19;fill-opacity:0.40"/>
	<rect x="1123.44" y="2134.08" width="425.12" height="630.15" style="fill:none;stroke:#5FAAFF;stroke-width:4.86"/>
	<rect x="1550.98" y="1920.04" width="429.97" height="846.62" style="fill:#FF8C19;fill-opacity:0.40"/>
	<rect x="1553.41" y="1922.47" width="425.11" height="841.76" style="fill:none;stroke:#5FAAFF;stroke-width:4.86"/>
	<rect x="1980.96" y="650.36" width="430.14" height="2116.29" style="fill:#FF8C19;fill-opacity:0.40"/>
	<rect x="1983.39" y="652.79" width="425.28" height="2111.43" style="fill:none;stroke:#5FAAFF;stroke-width:4.86"/>
	<rect x="2411.10" y="1920.04" width="429.97" height="846.62" style="fill:#FF8C19;fill-opacity:0.40"/>
	<rect x="2413.53" y="1922.47" width="425.11" height="841.76" style="fill:none;stroke:#5FAAFF;stroke-width:4.86"/>
	<rect x="2841.08" y="861.97" width="429.98" height="1904.68" style="fill:#FF8C19;fill-opacity:0.40"/>
	<rect x="2843.50" y="864.40" width="425.12" height="1899.82" style="fill:none;stroke:#5FAAFF;stroke-width:4.86"/>
	<path d=" M1120.84 2583.06 L1128.09 2578.16 L1135.18 2573.27 L1142.44 2568.04 L1149.69 2562.81 L1156.78 2557.57 L1164.04 2552.18 L1171.13 2546.61 L1178.38 2540.87 L1185.64 2535.13 L1192.72 2529.23 L1199.98 2523.32 L1207.07 2517.24 L1214.33 2511.00 L1221.58 2504.76 L1228.67 2498.34 L1235.93 2491.76 L1243.18 2485.01 L1250.27 2478.26 L1257.53 2471.34 L1264.61 2464.26 L1271.87 2457.17 L1279.13 2449.91 L1286.21 2442.49 L1293.47 2435.06 L1300.56 2427.30 L1307.81 2419.54 L1315.07 2411.78 L1322.16 2403.68 L1329.41 2395.57 L1336.67 2387.31 L1343.76 2379.04 L1351.01 2370.43 L1358.10 2361.82 L1365.36 2353.05 L1372.61 2344.11 L1379.70 2335.16 L1386.96 2326.05 L1394.04 2316.77 L1401.30 2307.32 L1408.56 2297.87 L1415.64 2288.25 L1422.90 2278.46 L1430.16 2268.68 L1437.24 2258.55 L1444.50 2248.43 L1451.59 2238.30 L1458.84 2227.84 L1466.10 2217.38 L1473.19 2206.74 L1480.44 2196.11 L1487.53 2185.14 L1494.79 2174.18 L1502.04 2163.21 L1509.13 2151.90 L1516.39 2140.59 L1523.64 2129.29 L1530.73 2117.64 L1537.99 2106.00 L1545.08 2094.36 L1552.33 2082.54 L1559.59 2070.56 L1566.68 2058.41 L1573.93 2046.26 L1581.02 2034.11 L1588.28 2021.79 L1595.53 2009.31 L1602.62 1996.82 L1609.88 1984.16 L1616.96 1971.34 L1624.22 1958.68 L1631.48 1945.69 L1638.56 1932.86 L1645.82 1919.70 L1653.08 1906.71 L1660.16 1893.54 L1667.42 1880.21 L1674.51 1866.88 L1681.76 1853.55 L1689.02 1840.05 L1696.11 1826.72 L1703.36 1813.05 L1710.45 1799.55 L1717.71 1785.88 L1724.96 1772.21 L1732.05 1758.54 L1739.31 1744.71 L1746.56 1731.04 L1753.65 1717.20 L1760.91 1703.36 L1767.99 1689.53 L1775.25 1675.69 L1782.51 1661.85 L1789.59 1647.84 L1796.85 1634.01 L1803.94 1620.17 L1811.19 1606.33 L1818.45 1592.33 L1825.54 1578.49 L1832.79 1564.65 L1840.05 1550.98 L1847.14 1537.14 L1854.39 1523.31 L1861.48 1509.64 L1868.74 1495.97 L1875.99 1482.30 L1883.08 1468.80 L1890.34 1455.30 L1897.43 1441.80 L1904.68 1428.30 L1911.94 1414.97 L1919.03 1401.81 L1926.28 1388.64 L1933.54 1375.48 L1940.63 1362.49 L1947.88 1349.49 L1954.97 1336.67 L1962.23 1324.01 L1969.48 1311.36 L1976.57 1298.87 L1983.83 1286.55 L1990.91 1274.23 L1998.17 1262.08 L2005.43 1250.10 L2012.51 1238.29 L2019.77 1226.47 L2026.86 1214.83 L2034.11 1203.53 L2041.37 1192.22 L2048.46 1181.08 L2055.71 1170.11 L2062.97 1159.31 L2070.06 1148.68 L2077.31 1138.22 L2084.40 1127.93 L2091.66 1117.80 L2098.91 1108.01 L2106.00 1098.22 L2113.26 1088.78 L2120.34 1079.49 L2127.60 1070.38 L2134.86 1061.44 L2141.94 1052.83 L2149.20 1044.22 L2156.46 1036.13 L2163.54 1028.03 L2170.80 1020.26 L2177.89 1012.67 L2185.14 1005.24 L2192.40 998.16 L2199.49 991.41 L2206.74 984.82 L2213.83 978.41 L2221.09 972.34 L2228.34 966.43 L2235.43 960.86 L2242.69 955.46 L2249.94 950.40 L2257.03 945.51 L2264.29 940.95 L2271.38 936.56 L2278.63 932.51 L2285.89 928.80 L2292.98 925.26 L2300.23 922.05 L2307.32 919.01 L2314.57 916.48 L2321.83 913.95 L2328.92 911.93 L2336.18 910.07 L2343.43 908.38 L2350.52 907.20 L2357.78 906.19 L2364.86 905.34 L2372.12 905.01 L2379.38 904.84 L2386.46 904.84 L2393.72 905.34 L2400.81 906.02 L2408.06 906.86 L2415.32 908.21 L2422.41 909.73 L2429.66 911.42 L2436.75 913.44 L2444.01 915.81 L2451.26 918.51 L2458.35 921.38 L2465.61 924.58 L2472.86 927.96 L2479.95 931.67 L2487.21 935.72 L2494.29 939.94 L2501.55 944.49 L2508.81 949.22 L2515.89 954.28 L2523.15 959.68 L2530.24 965.25 L2537.49 970.99 L2544.75 977.06 L2551.84 983.31 L2559.09 989.89 L2566.35 996.81 L2573.44 1003.72 L2580.69 1010.98 L2587.78 1018.57 L2595.04 1026.34 L2602.29 1034.27 L2609.38 1042.54 L2616.64 1050.97 L2623.73 1059.58 L2630.98 1068.36 L2638.24 1077.47 L2645.33 1086.75 L2652.58 1096.20 L2659.84 1105.82 L2666.93 1115.78 L2674.18 1125.73 L2681.27 1136.03 L2688.53 1146.32 L2695.78 1156.95 L2702.87 1167.75 L2710.13 1178.72 L2717.21 1189.86 L2724.47 1200.99 L2731.73 1212.47 L2738.81 1223.94 L2746.07 1235.76 L2753.33 1247.57 L2760.41 1259.55 L2767.67 1271.70 L2774.76 1283.85 L2782.01 1296.17 L2789.27 1308.66 L2796.36 1321.31 L2803.61 1333.97 L2810.70 1346.79 L2817.96 1359.62 L2825.21 1372.61 L2832.30 1385.78 L2839.56 1398.94 L2846.64 1412.10 L2853.90 1425.43 L2861.16 1438.93 L2868.24 1452.26 L2875.50 1465.93 L2882.76 1479.43 L2889.84 1493.10 L2897.10 1506.77 L2904.19 1520.44 L2911.44 1534.11 L2918.70 1547.94 L2925.79 1561.78 L2933.04 1575.62 L2940.13 1589.46 L2947.39 1603.29 L2954.64 1617.13 L2961.73 1630.97 L2968.99 1644.98 L2976.24 1658.81 L2983.33 1672.65 L2990.59 1686.49 L2997.68 1700.33 L3004.93 1714.16 L3012.19 1728.00 L3019.28 1741.84 L3026.53 1755.51 L3033.62 1769.34 L3040.88 1783.01 L3048.13 1796.51 L3055.22 1810.18 L3062.48 1823.68 L3069.73 1837.18 L3076.82 1850.68 L3084.08 1864.01 L3091.16 1877.34 L3098.42 1890.68 L3105.68 1903.84 L3112.76 1917.00 L3120.02 1929.99 L3127.11 1942.99 L3134.36 1955.81 L3141.62 1968.64 L3148.71 1981.46 L3155.96 1993.95 L3163.22 2006.61 L3170.31 2019.09 L3177.56 2031.41 L3184.65 2043.73 L3191.91 2055.88 L3199.16 2067.86 L3206.25 2079.84 L3213.51 2091.82 L3220.59 2103.47 L3227.85 2115.28 L3235.11 2126.76 L3242.19 2138.23 L3249.45 2149.54 L3256.71 2160.68 L3263.79 2171.81 L3271.05 2182.78" stroke-linejoin="round" style="fill:none;stroke:#000000;stroke-width:9.72"/>
	<rect x="629.27" y="2587.44" width="507.77" height="179.21" style="fill:#198DFF;fill-opacity:0.50"/>
	<rect x="631.70" y="2589.87" width="502.91" height="174.35" style="fill:none;stroke:#5FAAFF;stroke-width:4.86"/>
	<rect x="1137.04" y="2408.23" width="507.77" height="358.43" style="fill:#198DFF;fill-opacity:0.50"/>
	<rect x="1139.47" y="2410.66" width="502.91" height="353.57" style="fill:none;stroke:#5FAAFF;stroke-width:4.86"/>
	<rect x="1644.81" y="1332.79" width="507.77" height="1433.87" style="fill:#198DFF;fill-opacity:0.50"/>
	<rect x="1647.24" y="1335.22" width="502.91" height="1429.01" style="fill:none;stroke:#5FAAFF;stroke-width:4.86"/>
	<rect x="2152.57" y="1512.00" width="507.77" height="1254.66" style="fill:#198DFF;fill-opacity:0.50"/>
	<rect x="2155.00" y="1514.43" width="502.91" height="1249.80" style="fill:none;stroke:#5FAAFF;stroke-width:4.86"/>
	<rect x="2660.34" y="615.94" width="507.94" height="2150.72" style="fill:#198DFF;fill-opacity:0.50"/>
	<rect x="2662.77" y="618.37" width="503.08" height="2145.86" style="fill:none;stroke:#5FAAFF;stroke-width:4.86"/>
	<line x1="557.89" y1="2766.66" x2="557.89" y2="113.40" style="stroke:#000000;stroke-width:6.48"/>
	<line x1="557.89" y1="2766.66" x2="513.00" y2="2766.66" style="stroke:#000000;stroke-width:6.48"/>
	<text x="490.39" y="2806.09" style="font-family:'Helvetica';font-size:112.56px;fill:#000000" text-anchor="end">0</text>
	<line x1="557.89" y1="2121.19" x2="513.00" y2="2121.19" style="stroke:#000000;stroke-width:6.48"/>
	<text x="490.39" y="2160.62" style="font-family:'Helvetica';font-size:112.56px;fill:#000000" text-anchor="end">.01</text>
	<line x1="557.89" y1="1475.72" x2="513.00" y2="1475.72" style="stroke:#000000;stroke-width:6.48"/>
	<text x="490.39" y="1515.16" style="font-family:'Helvetica';font-size:112.56px;fill:#000000" text-anchor="end">.02</text>
	<line x1="557.89" y1="830.08" x2="513.00" y2="830.08" style="stroke:#000000;stroke-width:6.48"/>
	<text x="490.39" y="869.52" style="font-family:'Helvetica';font-size:112.56px;fill:#000000" text-anchor="end">.03</text>
	<line x1="557.89" y1="184.61" x2="513.00" y2="184.61" style="stroke:#000000;stroke-width:6.48"/>
	<text x="490.39" y="224.05" style="font-family:'Helvetica';font-size:112.56px;fill:#000000" text-anchor="end">.04</text>
	<text x="214.55" y="1439.94" style="font-family:'Helvetica';font-size:112.56px;fill:#000000" transform="rotate(-90 214.55,1439.94)" text-anchor="middle">Density</text>
	<line x1="557.89" y1="2766.66" x2="3373.48" y2="2766.66" style="stroke:#000000;stroke-width:6.48"/>
	<line x1="764.27" y1="2766.66" x2="764.27" y2="2811.54" style="stroke:#000000;stroke-width:6.48"/>
	<text x="764.27" y="2912.86" style="font-family:'Helvetica';font-size:112.56px;fill:#000000" text-anchor="middle">20</text>
	<line x1="1610.21" y1="2766.66" x2="1610.21" y2="2811.54" style="stroke:#000000;stroke-width:6.48"/>
	<text x="1610.21" y="2912.86" style="font-family:'Helvetica';font-size:112.56px;fill:#000000" text-anchor="middle">40</text>
	<line x1="2456.16" y1="2766.66" x2="2456.16" y2="2811.54" style="stroke:#000000;stroke-width:6.48"/>
	<text x="2456.16" y="2912.86" style="font-family:'Helvetica';font-size:112.56px;fill:#000000" text-anchor="middle">60</text>
	<line x1="3302.10" y1="2766.66" x2="3302.10" y2="2811.54" style="stroke:#000000;stroke-width:6.48"/>
	<text x="3302.10" y="2912.86" style="font-family:'Helvetica';font-size:112.56px;fill:#000000" text-anchor="middle">80</text>
	<text x="1965.60" y="3070.31" style="font-family:'Helvetica';font-size:112.56px;fill:#000000" text-anchor="middle">age</text>
	<rect x="3412.29" y="1177.71" width="1835.49" height="524.64" style="fill:#FFFFFF"/>
	<rect x="3415.53" y="1180.95" width="1829.01" height="518.16" style="fill:none;stroke:#FFFFFF;stroke-width:6.48"/>
	<rect x="3460.89" y="1226.31" width="259.20" height="112.39" style="fill:#FF8C19;fill-opacity:0.40"/>
	<rect x="3463.32" y="1228.74" width="254.34" height="107.53" style="fill:none;stroke:#5FAAFF;stroke-width:4.86"/>
	<line x1="3460.89" y1="1439.94" x2="3720.09" y2="1439.94" style="stroke:#000000;stroke-width:9.72"/>
	<rect x="3460.89" y="1541.19" width="259.20" height="112.56" style="fill:#198DFF;fill-opacity:0.50"/>
	<rect x="3463.32" y="1543.62" width="254.34" height="107.70" style="fill:none;stroke:#5FAAFF;stroke-width:4.86"/>
	<text x="3787.59" y="1321.94" style="font-family:'Helvetica';font-size:112.56px;fill:#000000">Sampled from Normal</text>
	<text x="3787.59" y="1479.38" style="font-family:'Helvetica';font-size:112.56px;fill:#000000">Theoretical Normal</text>
	<text x="3787.59" y="1636.99" style="font-family:'Helvetica';font-size:112.56px;fill:#000000">Sampled from t-distribution</text>
</svg>
